<?xml version="1.0" encoding="utf-8"?>
<svg viewBox="0 0 1600 1200" xmlns="http://www.w3.org/2000/svg">
  <path d="M 1270.718 138.024 L 1270.718 61.306 C 1270.718 39.409 1288.232 21.659 1309.829 21.659 C 1331.425 21.659 1348.939 39.409 1348.939 61.306 L 1348.939 214.744 C 1348.939 236.641 1331.425 254.391 1309.829 254.391 C 1288.232 254.391 1270.718 236.641 1270.718 214.744 L 1270.718 196.208" stroke="#F6AE9F" stroke-linejoin="round" fill-rule="nonzero" stroke-width="30" fill="none" style=""/>
  <path d="M 1197.715 33.493 L 1197.715 233.127 C 1197.715 292.799 1245.866 341.173 1305.266 341.173 C 1364.666 341.173 1412.818 292.799 1412.818 233.127 L 1412.818 185.961" stroke="#89C7AA" stroke-linejoin="round" fill-rule="nonzero" stroke-width="30" fill="none" style=""/>
  <path d="M 973.485 489.753 L 973.485 562.062 C 973.485 614.353 1015.51 656.74 1067.348 656.74" stroke="#89C7AA" stroke-linejoin="round" fill-rule="nonzero" stroke-width="30" fill="none" style=""/>
  <path d="M 1120.797 498.956 L 1120.799 234.928 C 1120.799 183.225 1079.357 141.313 1028.239 141.313" stroke="#F6AE9F" stroke-linejoin="round" fill-rule="nonzero" stroke-width="30" fill="none" style=""/>
  <path d="M 1507.429 269.922 C 1490.389 269.922 1476.575 283.072 1476.575 299.293 C 1476.575 315.514 1490.389 328.664 1507.429 328.664 C 1524.47 328.664 1538.285 315.514 1538.285 299.293 L 1538.285 269.922" stroke="#05203D" stroke-linejoin="round" fill-rule="nonzero" stroke-width="30" fill="none" style=""/>
  <path d="M 925.25 359.58 C 925.25 424.938 872.72 477.919 807.921 477.919 C 743.122 477.919 690.592 424.938 690.592 359.58" stroke="#F6AE9F" stroke-linejoin="round" fill-rule="nonzero" stroke-width="30" fill="none" style=""/>
  <path d="M 1026.935 418.75 L 1026.935 274.117 C 1026.935 245.794 1004.172 222.834 976.093 222.834 C 948.013 222.834 925.25 245.794 925.25 274.117 L 925.25 296.504" stroke="#05203D" stroke-linejoin="round" fill-rule="nonzero" stroke-width="30" fill="none" style=""/>
  <ellipse stroke="#05203D" stroke-linejoin="round" cx="765.461" cy="591.371" rx="35.199" ry="34.844" fill-rule="nonzero" stroke-width="30" fill="none" style=""/>
  <path d="M 755.775 337.523 L 755.775 192.296 C 755.775 164.138 778.539 141.313 806.618 141.313 C 834.697 141.313 857.46 164.138 857.46 192.296 L 857.46 337.523 C 857.46 365.682 834.697 388.508 806.618 388.508 C 778.539 388.508 755.775 365.682 755.775 337.523 Z" stroke="#CFCFAF" stroke-linejoin="round" fill-rule="nonzero" stroke-width="30" fill="none" style=""/>
  <path d="M 1489.445 962.007 C 1461.005 962.007 1437.95 984.967 1437.95 1013.287 C 1437.95 1041.607 1461.005 1064.567 1489.445 1064.567 C 1517.883 1064.567 1540.939 1041.607 1540.939 1013.287 L 1540.939 962.007" stroke="#F6AE9F" stroke-linejoin="round" fill-rule="nonzero" stroke-width="30" fill="none" style=""/>
  <path d="M 1377.442 976.44 L 1135.927 976.44 C 1089.383 976.416 1051.633 937.624 1051.612 889.79 C 1051.59 841.957 1089.301 803.199 1135.847 803.222 C 1182.388 803.247 1220.141 842.038 1220.159 889.872 L 1141.524 889.872 L 1141.524 889.872" stroke="#05203D" fill-rule="nonzero" stroke-width="30" fill="none" style=""/>
  <path d="M 1292.68 699.208 C 1292.68 710.985 1292.68 859.269 1292.68 931.938" stroke="#89C7AA" stroke-linejoin="round" fill-rule="nonzero" stroke-width="30" fill="none" style=""/>
  <path d="M 1293.009 600.86 C 1293.009 630.996 1269.059 655.426 1239.503 655.426 C 1209.949 655.426 1185.999 630.996 1185.999 600.86 C 1185.999 570.722 1209.949 546.291 1239.503 546.291 L 1411.53 546.291" stroke="#F6AE9F" stroke-linejoin="round" fill-rule="nonzero" stroke-width="30" fill="none" style=""/>
  <path d="M 1510.592 717.883 L 1510.592 641.164 C 1510.592 619.268 1528.105 601.516 1549.701 601.516 C 1571.297 601.516 1588.81 619.268 1588.81 641.164 L 1588.81 794.602 C 1588.81 816.498 1571.297 834.249 1549.701 834.249 C 1528.105 834.249 1510.592 816.498 1510.592 794.602 L 1510.592 776.065" stroke="#CFCFAF" stroke-linejoin="round" fill-rule="nonzero" stroke-width="30" fill="none" style=""/>
  <path d="M 1442.802 601.516 L 1442.802 801.152 C 1442.802 860.824 1490.953 909.197 1550.354 909.197 C 1609.752 909.197 1657.904 860.824 1657.904 801.152 L 1657.904 753.985" stroke="#89C7AA" stroke-linejoin="round" fill-rule="nonzero" stroke-width="30" fill="none" style=""/>
  <path d="M 1459.75 400.478 L 1403.294 400.478 C 1362.474 400.478 1329.383 434.034 1329.383 475.425" stroke="#05203D" stroke-linejoin="round" fill-rule="nonzero" stroke-width="30" fill="none" style=""/>
  <ellipse stroke="#F6AE9F" stroke-linejoin="round" cx="1546.965" cy="491.879" rx="54.101" ry="53.91" fill-rule="nonzero" stroke-width="30" fill="none" style=""/>
  <path d="M 636.295 579.981 C 636.319 593.128 636.345 606.278 636.371 619.427" stroke="#CFCFAF" stroke-linejoin="round" fill-rule="nonzero" stroke-width="30" fill="none" style=""/>
  <path d="M 1120.109 635.704 C 1120.134 648.851 1120.159 662 1120.185 675.149" stroke="#89C7AA" stroke-linejoin="round" fill-rule="nonzero" stroke-width="30" fill="none" style=""/>
  <path d="M 1510.403 142.768 C 1510.427 155.917 1510.452 169.065 1510.478 182.214" stroke="#89C7AA" stroke-linejoin="round" fill-rule="nonzero" stroke-width="30" fill="none" style=""/>
  <path d="M 1544.663 60.571 C 1544.687 73.72 1544.713 86.868 1544.738 100.018" stroke="#05203D" stroke-linejoin="round" fill-rule="nonzero" stroke-width="30" fill="none" style=""/>
  <path d="M 1351.464 650.343 C 1351.489 663.492 1351.514 676.639 1351.539 689.788" stroke="#05203D" stroke-linejoin="round" fill-rule="nonzero" stroke-width="30" fill="none" style=""/>
  <path d="M 1348.453 713.777 C 1348.479 726.926 1348.504 740.073 1348.53 753.223" stroke="#05203D" stroke-linejoin="round" fill-rule="nonzero" stroke-width="30" fill="none" style=""/>
  <path d="M 1349.05 769.962 C 1349.074 783.111 1349.101 796.258 1349.126 809.407" stroke="#05203D" stroke-linejoin="round" fill-rule="nonzero" stroke-width="30" fill="none" style=""/>
</svg>