<?xml version="1.0" encoding="utf-8"?>
<svg viewBox="0 0 1600 1200" xmlns="http://www.w3.org/2000/svg">
  <g transform="matrix(1, 0, 0, 1, 465.953674, 8.863897)" id="Shape" fill-rule="nonzero" stroke-width="30" stroke="none" fill="none">
    <ellipse stroke="#CFCFAF" stroke-linejoin="round" cx="1050.595" cy="-29.487" rx="38" ry="37.5"/>
    <path d="M 1075.595 140.013 L 1112.142 140.013 C 1136.693 140.013 1156.595 120.985 1156.595 97.513 C 1156.595 74.041 1136.693 55.013 1112.142 55.013 L 1039.047 55.013 C 1014.496 55.013 994.595 74.041 994.595 97.513" stroke="#F6AE9F" stroke-linejoin="round"/>
    <path d="M 462.547 80.013 C 407.342 80.013 362.595 30.764 362.595 -29.987 C 362.595 -51.082 367.988 -70.79 377.346 -87.532 M 530.595 -139.987 L 462.547 -139.987 C 440.77 -139.987 420.617 -132.323 404.202 -119.313" stroke="#CFCFAF" stroke-linejoin="round"/>
    <path d="M 786.158 88.013 C 807.935 88.013 825.595 70.552 825.595 49.013 C 825.595 27.474 807.935 10.013 786.158 10.013 L 741.595 10.013" stroke="#F6AE9F" stroke-linejoin="round"/>
    <path d="M 65.595 -41.487 L 65.595 -99.834 C 65.595 -116.487 79.028 -129.987 95.595 -129.987 C 112.161 -129.987 125.595 -116.487 125.595 -99.834 L 125.595 16.86 C 125.595 33.513 112.161 47.013 95.595 47.013 C 79.028 47.013 65.595 33.513 65.595 16.86 L 65.595 2.763" stroke="#F6AE9F" stroke-linejoin="round"/>
    <path d="M 9.595 -120.987 L 9.595 30.842 C 9.595 76.224 46.531 113.013 92.095 113.013 C 137.658 113.013 174.595 76.224 174.595 30.842 L 174.595 -5.03" stroke="#89C7AA" stroke-linejoin="round"/>
    <path d="M 597.595 -77.987 L 777.574 -77.987 C 846.068 -77.987 901.595 -22.246 901.595 46.513 C 901.595 115.272 846.068 171.013 777.574 171.013 L 723.426 171.013" stroke="#89C7AA" stroke-linejoin="round"/>
    <path d="M 1080.595 176.013 L 1080.595 258.024 C 1080.595 293.364 1051.679 322.013 1016.006 322.013 L 965.595 322.013" stroke="#05203D" stroke-linejoin="round"/>
    <path d="M -162.405 226.013 L -162.405 281.006 C -162.405 320.774 -130.17 353.013 -90.405 353.013" stroke="#89C7AA" stroke-linejoin="round"/>
    <path d="M 720.095 305.513 L 825.405 305.513 C 886.042 305.513 936.836 352.89 950.095 416.513" stroke="#05203D"/>
    <path d="M 935.595 186.313 C 935.595 160.19 956.864 139.013 983.095 139.013 C 1009.326 139.013 1030.595 160.19 1030.595 186.313 L 1030.595 220.713 C 1030.595 246.836 1009.326 268.013 983.095 268.013 C 956.864 268.013 935.595 246.836 935.595 220.713 L 935.595 186.313 Z" stroke="#89C7AA" stroke-linejoin="round"/>
    <path d="M -49.406 233.013 L -49.405 32.21 C -49.405 -7.111 -81.193 -38.987 -120.405 -38.987" stroke="#F6AE9F" stroke-linejoin="round"/>
    <circle stroke="#89C7AA" stroke-linejoin="round" cx="622.595" cy="81.013" r="32"/>
    <path d="M 622.595 171.013 C 673.402 171.013 714.595 130.495 714.595 80.513 C 714.595 30.531 673.402 -9.987 622.595 -9.987 C 571.787 -9.987 530.595 30.531 530.595 80.513" stroke="#F6AE9F" stroke-linejoin="round"/>
    <path d="M 467.095 -67.987 C 446.384 -67.987 429.595 -51.198 429.595 -30.487 C 429.595 -9.776 446.384 7.013 467.095 7.013 C 487.806 7.013 504.595 -9.776 504.595 -30.487 L 504.595 -67.987" stroke="#05203D" stroke-linejoin="round"/>
    <path d="M -199.405 127.013 C -199.405 176.719 -239.7 217.013 -289.405 217.013 C -339.111 217.013 -379.405 176.719 -379.405 127.013" stroke="#F6AE9F" stroke-linejoin="round"/>
    <path d="M -121.405 172.013 L -121.405 62.015 C -121.405 40.474 -138.866 23.013 -160.405 23.013 C -181.944 23.013 -199.405 40.474 -199.405 62.015 L -199.405 79.041" stroke="#05203D" stroke-linejoin="round"/>
    <ellipse stroke="#05203D" stroke-linejoin="round" cx="-352.405" cy="289.513" rx="27" ry="26.5"/>
    <path d="M -329.405 110.238 L -329.405 -0.212 C -329.405 -21.627 -311.944 -38.987 -290.405 -38.987 C -268.866 -38.987 -251.405 -21.627 -251.405 -0.212 L -251.405 110.238 C -251.405 131.653 -268.866 149.013 -290.405 149.013 C -311.944 149.013 -329.405 131.653 -329.405 110.238 Z" stroke="#CFCFAF" stroke-linejoin="round"/>
    <path d="M 563.595 172.013 L 475.52 172.013 C 419.782 172.013 374.595 217.232 374.595 273.013" stroke="#F6AE9F" stroke-linejoin="round"/>
    <path d="M 651.095 366.013 C 629.28 366.013 611.595 383.474 611.595 405.013 C 611.595 426.552 629.28 444.013 651.095 444.013 C 672.91 444.013 690.595 426.552 690.595 405.013 L 690.595 366.013" stroke="#F6AE9F" stroke-linejoin="round"/>
    <path d="M 741.595 366.013 L 806.125 366.013 C 849.465 366.013 884.595 400.935 884.595 444.013" stroke="#89C7AA" stroke-linejoin="round"/>
    <path d="M 105.68 310.513 C 105.68 333.433 87.307 352.013 64.637 352.013 C 41.967 352.013 23.595 333.433 23.595 310.513 C 23.595 287.593 41.967 269.013 64.637 269.013 L 196.595 269.013" stroke="#F6AE9F" stroke-linejoin="round"/>
    <path d="M 249.595 399.513 L 249.595 341.166 C 249.595 324.513 263.028 311.013 279.595 311.013 C 296.161 311.013 309.595 324.513 309.595 341.166 L 309.595 457.86 C 309.595 474.513 296.161 488.013 279.595 488.013 C 263.028 488.013 249.595 474.513 249.595 457.86 L 249.595 443.763" stroke="#CFCFAF" stroke-linejoin="round"/>
    <path d="M 197.595 311.013 L 197.595 462.842 C 197.595 508.224 234.531 545.013 280.095 545.013 C 325.658 545.013 362.595 508.224 362.595 462.842 L 362.595 426.97" stroke="#89C7AA" stroke-linejoin="round"/>
    <path d="M 210.595 176.013 L 167.29 176.013 C 135.977 176.013 110.595 201.533 110.595 233.013" stroke="#05203D" stroke-linejoin="round"/>
    <path d="M 249.095 133.013 C 249.095 139.083 249.095 231.565 249.095 269.013" stroke="#F6AE9F" stroke-linejoin="round"/>
    <path d="M 497.595 355.161 L 497.595 368.345 C 497.595 386.939 482.423 402.013 463.719 402.013 C 445.007 402.013 429.836 386.939 429.836 368.345 L 429.836 357.425 C 429.836 338.972 414.782 324.013 396.219 324.013 C 377.649 324.013 362.595 338.972 362.595 357.425 L 362.595 370.864" stroke="#89C7AA" stroke-linejoin="round"/>
    <path d="M -268.323 290.22 C -268.304 300.22 -268.285 310.22 -268.266 320.22" stroke="#F6AE9F" stroke-linejoin="round"/>
    <path d="M -414.934 370.013 C -414.915 380.013 -414.896 390.013 -414.877 400.013" stroke="#F6AE9F" stroke-linejoin="round"/>
    <path d="M -463.934 296.013 C -463.915 306.013 -463.896 316.013 -463.877 326.013" stroke="#CFCFAF" stroke-linejoin="round"/>
    <path d="M -49.934 337.013 C -49.915 347.013 -49.896 357.013 -49.877 367.013" stroke="#89C7AA" stroke-linejoin="round"/>
    <path d="M 248.066 20.013 C 248.085 30.013 248.104 40.013 248.123 50.013" stroke="#89C7AA" stroke-linejoin="round"/>
    <path d="M 248.066 -36.987 C 248.085 -26.987 248.104 -16.987 248.123 -6.987" stroke="#05203D" stroke-linejoin="round"/>
  </g>
</svg>